<?xml version="1.0" encoding="utf-8"?>
<!-- Generator: Adobe Illustrator 23.0.1, SVG Export Plug-In . SVG Version: 6.00 Build 0)  -->
<svg version="1.1" id="Layer_1" xmlns="http://www.w3.org/2000/svg" xmlns:xlink="http://www.w3.org/1999/xlink" x="0px" y="0px"
	 viewBox="0 0 266.9 282.23" style="enable-background:new 0 0 266.9 282.23;" xml:space="preserve">
<style type="text/css">
	.st0{fill:#F7F7F7;}
	.st1{fill:none;stroke:#F7F7F7;stroke-miterlimit:10;}
	.st2{fill:#F7F7F7;stroke:#FFFFFF;stroke-miterlimit:10;}
</style>
<g>
	<g>
		<g>
			<path class="st0" d="M141.34,184.75c1.02-1.59,1.91-3.15,2.8-4.69c0.63-1.1,1.24-2.18,1.86-3.25c1.65,0.37,3.31,0.57,4.96,0.57
				c3.79,0,7.53-0.97,10.93-2.88c5.21-2.93,8.96-7.71,10.57-13.46l0.72-2.58l-2.58-0.72c-10.04-2.81-20.41,1.74-25.39,10.39
				c-0.73,0.9-4.43,7.78-5.01,10.44c-0.39,1.88-0.63,3.8-0.53,5.74C139.73,185.18,140.87,185.49,141.34,184.75z M166.27,162.35
				c-3.08,6.44-9.92,10.29-17.03,9.58C152.32,165.49,159.17,161.64,166.27,162.35z"/>
		</g>
		<g>
			<path class="st0" d="M127.53,183.97c0.1-1.94-0.13-3.87-0.53-5.74c-0.58-2.66-4.13-9.33-4.77-10.14
				c-4.99-8.63-15.35-13.17-25.37-10.36l-2.58,0.72l0.72,2.58c2.76,9.86,11.76,16.33,21.54,16.33c1.61,0,3.23-0.18,4.86-0.55
				c0.55,0.96,1.1,1.92,1.66,2.9c0.89,1.54,1.79,3.1,2.8,4.69C126.34,185.15,127.49,184.85,127.53,183.97z M101.2,162.35
				c7.1-0.71,13.95,3.14,17.03,9.58C111.13,172.64,104.28,168.78,101.2,162.35z"/>
		</g>
		<g>
			<path class="st0" d="M142.05,199.45c-6.65-3.74-16.62,0-16.62,0l8.52,8.86L142.05,199.45z"/>
		</g>
	</g>
	<g>
		<g>
			<path class="st0" d="M29.07,69.94c-0.94-10.8-0.61-19.25-0.34-23.2c0.05-0.81,0.46-1.56,1.1-2.05c0.63-0.48,1.39-0.66,2.15-0.53
				c3.02,1.93,5.89,4.01,8.62,6.26c3.63,2.89,7.01,6.07,10.26,9.37c6.52,6.57,12.49,13.69,18.19,21.03
				c5.7,7.35,11.12,14.94,16.41,22.65c2.64,3.86,5.29,7.73,7.86,11.65c2.63,3.9,0.35-5.63-4.29-13.89
				c-4.69-8.23-9.91-16.19-15.75-23.7C67.44,70.04,61,62.92,53.71,56.71c-1.81-1.57-3.71-3.03-5.62-4.46
				c-1.97-1.37-3.92-2.76-5.98-3.97c-1.84-1.08-3.72-2.09-5.64-3.01c28.84,8.22,64,40.67,81.44,68.74
				c-14.44,5.17-25.8,17.37-29.96,32.45l-4.47,16.19c-37.76-20.14-49.94-57.82-53.59-85.27c-1.51,2.47-2.92,4.98-4.25,7.53
				c4.94,28.06,18.87,63.57,56.37,83.03l-3.43,12.4l2.98,1.31c1.89,0.83,4.08,1.73,6.4,2.67c2.15,0.88,4.37,1.78,6.61,2.74
				c8.5,3.65,15.97,9.41,21.61,16.67l7.22,9.29l0.18,0.16c2.83,2.53,6.36,3.79,9.88,3.79c3.6,0,7.2-1.32,10.05-3.94l0.2-0.18
				l5.11-7.11c5.62-7.82,13.22-14.02,21.97-17.93c4.13-1.85,8.36-3.51,12.08-4.99c1.35-0.53,2.63-1.04,3.82-1.52l2.22-0.89
				l-3.44-12.47c37.5-19.46,51.43-54.97,56.37-83.04c-1.32-2.56-2.74-5.07-4.25-7.53c-3.64,27.45-15.81,65.14-53.59,85.29
				l-4.47-16.18c-4.15-15.05-15.51-27.24-29.98-32.44c17.43-28.08,52.6-60.53,81.44-68.76c-1.92,0.92-3.8,1.92-5.63,3
				c-2.07,1.22-4.01,2.6-5.99,3.97c-1.91,1.43-3.82,2.89-5.62,4.46c-7.29,6.21-13.73,13.33-19.57,20.83
				c-5.83,7.52-11.06,15.47-15.74,23.71c-4.64,8.26-6.93,17.78-4.3,13.88c2.57-3.93,5.23-7.79,7.86-11.65
				c5.29-7.71,10.71-15.3,16.41-22.65c5.71-7.33,11.67-14.45,18.2-21.02c3.25-3.3,6.63-6.48,10.26-9.37
				c2.73-2.25,5.6-4.33,8.62-6.27c0.76-0.13,1.52,0.05,2.15,0.53c0.65,0.49,1.05,1.24,1.1,2.05c0.27,4.07,0.61,12.92-0.43,24.17
				l4.28-2.65l1.16,1.88c0.94-11.05,0.61-19.7,0.34-23.76c-0.16-2.35-1.32-4.52-3.19-5.95c-1.86-1.42-4.24-1.98-6.53-1.52
				c-29.2,5.86-63.94,36.03-84.09,64.37c-0.12-0.99-0.33-1.95-0.64-2.84c-3.1-9.01-14.82-21.51-15.48-20.77
				c-3.07,3.45-8.93,18.11-8.7,22.45c0.02,0.32-0.54,0.39-0.64,0.08c-0.83-2.52-0.86-5.01-1.24-7.68c-3.33,1.75-5.19,5.64-5.86,9.53
				C97.68,75.5,62.57,44.83,33.1,38.92c-2.29-0.46-4.66,0.09-6.53,1.52c-1.87,1.43-3.04,3.6-3.2,5.95
				c-0.27,4.07-0.61,12.72,0.34,23.78l1.61-2.57L29.07,69.94z M122.04,118.28l0.18-0.05c2.77,2.84,6.58,4.99,10.99,5.17
				c5.27,0.22,9.39-1.89,12.28-5.06c13.92,4.11,24.98,15.41,28.89,29.56l8.1,29.33c-0.51,0.2-1.03,0.41-1.56,0.62
				c-3.78,1.49-8.06,3.18-12.3,5.08c-9.62,4.3-17.96,11.11-24.14,19.7l-4.78,6.65c-3.55,3.1-8.78,3.13-12.36,0.07l-6.92-8.89
				c-6.2-7.97-14.4-14.29-23.73-18.3c-2.29-0.98-4.53-1.9-6.7-2.78c-1.78-0.73-3.48-1.42-5-2.07l8.12-29.42
				C97.03,133.68,108.12,122.34,122.04,118.28z"/>
		</g>
		<g>
			<path class="st0" d="M244.97,72.11l-1.22-1.96c-0.39,4.56-1,9.53-1.92,14.76c8.9,17.2,13.59,36.34,13.59,55.9
				c0,67.1-54.59,121.69-121.69,121.69S12.05,207.91,12.05,140.81c0-19.57,4.68-38.7,13.59-55.89c-0.92-5.23-1.53-10.19-1.92-14.75
				l-0.79,1.26C9.9,92.19,3.01,116.18,3.01,140.81c0,72.08,58.64,130.72,130.72,130.72s130.72-58.64,130.72-130.72
				C264.46,116.46,257.72,92.71,244.97,72.11z"/>
		</g>
		<g>
			<path class="st0" d="M29.89,77.38c-0.34-2.58-0.61-5.06-0.82-7.44l-3.74-2.35l-1.61,2.57c0.39,4.56,1,9.52,1.92,14.75
				C26.96,82.36,28.38,79.85,29.89,77.38z"/>
		</g>
		<g>
			<path class="st0" d="M29.89,77.38c-0.34-2.58-0.61-5.06-0.82-7.44l-3.74-2.35l-1.61,2.57c0.39,4.56,1,9.52,1.92,14.75
				C26.96,82.36,28.38,79.85,29.89,77.38z"/>
		</g>
		<g>
			<path class="st0" d="M238.32,70.91c-0.19,2.08-0.43,4.23-0.72,6.46c1.51,2.47,2.92,4.98,4.25,7.53
				c0.92-5.23,1.53-10.2,1.92-14.76l-1.16-1.88L238.32,70.91z"/>
		</g>
		<g>
			<path class="st0" d="M238.32,70.91c-0.19,2.08-0.43,4.23-0.72,6.46c1.51,2.47,2.92,4.98,4.25,7.53
				c0.92-5.23,1.53-10.2,1.92-14.76l-1.16-1.88L238.32,70.91z"/>
		</g>
	</g>
	<g>
		<g>
			<path class="st0" d="M52.79,50.22l-6.03-6.72c24-21.54,55-33.41,87.28-33.41c31.99,0,62.77,11.67,86.68,32.87l-5.99,6.76
				c-22.26-19.73-50.91-30.6-80.69-30.6C103.99,19.12,75.13,30.16,52.79,50.22z"/>
		</g>
	</g>
	<g>
		<g>
			<path class="st0" d="M64.19,209.71c1.55,1.12,2.49,2.88,2.93,5.38c1.07-1.51,2.13-3.02,3.18-4.54c-1.77-2.02-4.84-5.2-7.87-5.42
				c-1.59-0.11-2.97,0.45-4.09,1.74c-1.07,1.23-1.39,2.64-0.94,4.24c0.25,0.82,0.96,2.25,2.3,4.28c1.17,1.75,1.5,2.97,0.96,3.67
				c-0.74,0.96-2.04,0.85-3.78-0.41c-2.06-1.51-3.23-3.7-3.44-6.46c-1.35,1.47-2.71,2.94-4.09,4.39c1.32,2.33,4.83,5.68,7.5,6.71
				c1.2,0.48,2.51,0.68,3.85,0.6c2.11-0.16,3.67-0.98,4.68-2.41c1.49-2.12,0.98-4.75-1.18-7.96c-0.83-1.17-1.42-2.05-1.8-2.6
				c-0.29-0.51-0.3-0.92-0.03-1.26C62.8,209.11,63.4,209.13,64.19,209.71z"/>
		</g>
		<g>
			<path class="st0" d="M96.3,238.31c1.41-4.24,2.79-8.48,4.12-12.73c0.41-0.58,0.81-1.16,1.21-1.75c-2.04-0.58-4.05-1.21-6.05-1.9
				c0.03,0.72,0.05,1.44,0.09,2.15c-1.72,4.74-3.5,9.46-5.34,14.17c-0.52,0.52-1.05,1.04-1.58,1.56c4.95,1.72,10.01,3.15,15.15,4.28
				c0.37-1.45,0.74-2.9,1.1-4.35c-0.69,0.1-1.38,0.2-2.07,0.3C100.7,239.53,98.49,238.94,96.3,238.31z"/>
		</g>
		<g>
			<path class="st0" d="M111.12,228.14c-1.02,4.93-2.08,9.86-3.17,14.77c-0.41,0.59-0.83,1.19-1.26,1.78
				c2.48,0.49,4.98,0.92,7.49,1.27c-0.18-0.69-0.36-1.39-0.53-2.08c0.35-2.04,0.69-4.09,1.03-6.13c1.27,0.19,2.54,0.36,3.82,0.5
				c0.64,0.23,1.28,0.45,1.92,0.67c0.18-1.56,0.36-3.12,0.53-4.69c-0.64,0.11-1.27,0.22-1.91,0.33c-1.25-0.15-2.5-0.31-3.75-0.49
				c0.18-1.13,0.37-2.26,0.55-3.39c1.63,0.24,3.27,0.45,4.92,0.62c0.72,0.3,1.44,0.6,2.17,0.89c0.14-1.46,0.28-2.92,0.41-4.38
				c-4.22-0.37-8.42-0.96-12.57-1.78C110.88,226.73,111,227.43,111.12,228.14z"/>
		</g>
		<g>
			<path class="st0" d="M137.54,243.53c-2.12,0.07-4.25,0.08-6.38,0.04c0.03-1.49,0.06-2.98,0.09-4.47c1.3,0.02,2.61,0.03,3.91,0.01
				c0.65,0.14,1.31,0.28,1.97,0.42c-0.05-1.57-0.1-3.14-0.15-4.71c-0.61,0.19-1.23,0.39-1.85,0.57c-1.27,0.02-2.54,0.01-3.82-0.01
				c0.02-1.14,0.04-2.29,0.06-3.43c1.65,0.03,3.31,0.02,4.96-0.02c0.76,0.21,1.53,0.41,2.31,0.6c-0.07-1.47-0.14-2.93-0.2-4.4
				c-4.24,0.18-8.5,0.13-12.74-0.15c0.21,0.68,0.42,1.37,0.64,2.05c-0.32,5.02-0.66,10.04-1.01,15.06
				c-0.32,0.64-0.65,1.28-0.98,1.93c5.11,0.34,10.24,0.39,15.35,0.16c-0.09-1.49-0.18-2.98-0.27-4.47
				C138.82,242.99,138.18,243.26,137.54,243.53z"/>
		</g>
		<g>
			<path class="st0" d="M157.53,227.79c0.12-0.71,0.23-1.42,0.34-2.12c-2.13,0.45-4.27,0.85-6.42,1.18
				c0.37,0.62,0.75,1.24,1.13,1.85c0.43,2.42,0.86,4.83,1.3,7.24c-2.49-2.76-4.82-5.59-6.99-8.48c-1.92,0.22-3.85,0.4-5.78,0.52
				c0.32,0.65,0.65,1.3,0.98,1.95c0.4,5.02,0.81,10.03,1.23,15.04c-0.24,0.68-0.49,1.36-0.74,2.04c2.55-0.17,5.1-0.41,7.64-0.72
				c-0.38-0.62-0.76-1.24-1.14-1.86c-0.37-2.58-0.73-5.16-1.08-7.74c2.44,3.01,5.05,5.94,7.85,8.79c2.15-0.36,4.29-0.76,6.41-1.22
				c-0.45-0.58-0.89-1.17-1.32-1.75C159.77,237.61,158.64,232.7,157.53,227.79z"/>
		</g>
		<g>
			<path class="st0" d="M176.28,222.26c-0.01-0.72-0.02-1.43-0.04-2.15c-2.01,0.79-4.04,1.53-6.09,2.22
				c0.47,0.55,0.95,1.1,1.44,1.64c0.85,2.31,1.71,4.61,2.58,6.91c-2.95-2.3-5.75-4.7-8.39-7.19c-1.85,0.53-3.71,1.02-5.58,1.46
				c0.43,0.59,0.86,1.17,1.3,1.76c1.28,4.87,2.61,9.74,3.97,14.59c-0.11,0.71-0.22,1.42-0.34,2.13c2.48-0.59,4.94-1.25,7.37-1.97
				c-0.5-0.54-0.99-1.09-1.47-1.64c-0.85-2.47-1.68-4.95-2.5-7.43c2.95,2.55,6.07,5.01,9.36,7.34c2.04-0.7,4.07-1.46,6.07-2.26
				c-0.55-0.5-1.09-1-1.63-1.5C180.24,231.55,178.23,226.92,176.28,222.26z"/>
		</g>
		<g>
			<path class="st0" d="M196.4,227.67c-1.83,1-3.68,1.95-5.56,2.87c-0.73-1.32-1.45-2.63-2.16-3.95c1.16-0.56,2.3-1.13,3.44-1.73
				c0.65-0.16,1.29-0.33,1.93-0.51c-0.82-1.35-1.64-2.71-2.44-4.07c-0.44,0.44-0.89,0.88-1.34,1.32c-1.11,0.58-2.23,1.14-3.35,1.68
				c-0.54-1.02-1.07-2.03-1.61-3.05c1.47-0.71,2.92-1.44,4.35-2.21c0.77-0.15,1.54-0.32,2.31-0.49c-0.76-1.26-1.52-2.53-2.27-3.79
				c-3.64,2.03-7.41,3.87-11.28,5.5c0.51,0.51,1.02,1.03,1.54,1.53c2.11,4.58,4.3,9.14,6.56,13.68c0.05,0.7,0.09,1.41,0.13,2.12
				c4.65-1.97,9.16-4.21,13.51-6.68c-0.84-1.25-1.67-2.51-2.49-3.77C197.24,226.63,196.82,227.15,196.4,227.67z"/>
		</g>
		<g>
			<path class="st0" d="M206.77,213.25c-0.8-2.74-1.65-5.46-2.53-8.16c0.12-0.45,0.24-0.91,0.35-1.36
				c-1.49,1.19-3.02,2.35-4.58,3.46c0.26,0.16,0.51,0.31,0.77,0.46c0.47,1.6,0.94,3.21,1.39,4.83c-1.48-0.9-2.94-1.83-4.37-2.78
				c-0.05-0.29-0.09-0.58-0.14-0.87c-1.66,1.12-3.35,2.2-5.07,3.23c0.47,0.05,0.94,0.09,1.42,0.14c2.34,1.72,4.76,3.37,7.26,4.96
				c0.67,3.16,1.28,6.34,1.82,9.55c-0.18,0.6-0.37,1.19-0.56,1.79c2.15-1.28,4.25-2.62,6.3-4.01c-0.38-0.27-0.76-0.55-1.14-0.82
				c-0.49-1.94-1-3.87-1.53-5.79c1.81,1.03,3.67,2.03,5.56,2.99c0.17,0.41,0.33,0.83,0.5,1.24c2.02-1.47,3.99-2.99,5.91-4.57
				c-0.74-0.01-1.49-0.03-2.22-0.06C212.76,216.17,209.71,214.76,206.77,213.25z"/>
		</g>
		<g>
			<path class="st0" d="M85.52,218.06c-2.56-1.16-5.46-0.53-6.01,1.73c1.38-1.57,5.46-0.66,5.78,2.32c0.14,3.5-2.21,8.44-5.32,10.24
				c-1.62,0.96-3.56,0.95-5.04,0.23c-1.51-0.73-2.59-2.19-2.69-3.98c-0.23-3.05,1.79-7.63,5.12-10.22c1.62-1.29,3.76-1.97,5.93-1.97
				c-6.19-2.88-12.21-0.3-14.7,3.24c-2.46,3.51-2.13,10.54,5.56,14.34c7.73,3.7,14.18-0.08,15.71-4.07
				C91.6,225.48,89.18,219.75,85.52,218.06z"/>
		</g>
	</g>
	<g>
		<polygon class="st0" points="128.61,46.38 133.74,29.83 138.86,46.38 155.42,51.51 138.86,56.63 133.74,73.19 128.61,56.63 
			112.06,51.51 		"/>
	</g>
	<g>
		<path class="st0" d="M222.22,207.92l-2.46-1.72c12.44-17.72,19.01-38.54,19.01-60.21h3C241.77,168.28,235.01,189.69,222.22,207.92
			z"/>
	</g>
	<g>
		<path class="st0" d="M41.86,202.77c-10.57-17.04-16.16-36.68-16.16-56.78h3c0,19.55,5.43,38.63,15.71,55.2L41.86,202.77z"/>
	</g>
	<g>
		<path class="st1" d="M49.55,198.36c-9.5-15.21-14.99-33.16-14.99-52.37"/>
		<path class="st2" d="M48.28,199.15c-9.95-15.94-15.21-34.33-15.21-53.17h3c0,18.28,5.1,36.11,14.76,51.58L48.28,199.15z"/>
	</g>
	<g>
		<path class="st0" d="M217.26,202.13l-2.49-1.68c10.88-16.14,16.63-34.97,16.63-54.47h3C234.41,166.08,228.48,185.5,217.26,202.13z
			"/>
	</g>
</g>
</svg>
